<?xml version="1.0" encoding="UTF-8"?>
<svg id="Layer_1" data-name="Layer 1" xmlns="http://www.w3.org/2000/svg" viewBox="0 0 1347.92 431.87">
  <defs>
    <style>
      .cls-1 {
        fill: #000;
        stroke-width: 0px;
      }
    </style>
  </defs>
  <path class="cls-1" d="M1309.53,345.69c36.04-52.89,47.71-112.1,30.7-170.67-23.83-82.1-78.93-131.29-162.49-148.62-4.24-.88-5.66-2.23-5.48-6.4.28-6.2.07-12.42.07-18.86h-54.56v23.27c-76.49,13.31-132.69,52.95-162.63,124.23-29.94,71.29-18.42,139.08,25.21,202.55-9.81,10.21-19.7,20.51-28.48,29.63,6.37,7.07,12.25,13.55,18.09,20.08,5.96,6.66,11.89,13.35,17.88,20.08,11.98-11.45,22.1-21.13,31.72-30.33,84.84,55.78,168.63,54.55,254.28-5.3,9.15,10.36,18.64,21.11,26.29,29.76,14.4-12.96,27.67-24.89,40.43-36.38-10.83-11.53-20.92-22.27-31.04-33.06ZM1057.73,349.58c3.99-4.23,7.92-8.4,10.71-11.36-12.15-13.27-24.17-26.39-36.92-40.32-4.33,4.94-7.82,8.92-12.17,13.89-28.17-45.77-34.79-92.6-14.62-141.2,20.76-50.01,59.31-79.52,112.89-90.98v20.04h54.54v-19.31c46.86,10.63,81.89,35.66,103.4,77.51,26.04,50.69,23.11,100.93-5.99,150.48-4.27-3.89-7.87-7.16-10.05-9.16-13.54,12.18-26.68,24-40.1,36.08,4.92,4.53,8.65,7.95,12.46,11.45-42.86,35.35-119.01,43.01-174.14,2.88Z"/>
  <path class="cls-1" d="M102.43,379.02c0,1.79.66,3.83,1.7,5.9-2.44,1.8-4.69,3.89-4.69,7.18,0,4.05,3.06,6.96,7.5,6.96,2.82,0,5-1.16,6.83-2.91,1.86,1.39,3.62,2.41,5.25,2.91l.88-2.64c-1.31-.42-2.77-1.29-4.29-2.44,1.82-2.63,3.16-5.64,4.02-8.91h-2.95c-.69,2.84-1.75,5.26-3.16,7.28-2.28-1.96-4.48-4.43-6.07-6.98,2.65-2.04,5.37-4.13,5.37-7.33,0-2.95-1.76-4.97-4.89-4.97-3.29,0-5.51,2.6-5.51,5.97ZM111.7,394.49c-1.3,1.22-2.8,2.04-4.38,2.04-2.68,0-4.82-1.84-4.82-4.63,0-1.94,1.24-3.45,2.84-4.85,1.7,2.69,3.96,5.31,6.35,7.43ZM110.27,378.07c0,2.19-1.79,3.72-3.92,5.26-.71-1.52-1.17-3.02-1.17-4.38,0-2.06,1.03-3.63,2.79-3.63s2.3,1.3,2.3,2.76Z"/>
  <path class="cls-1" d="M49.28,398.6v-2.64h-6.35v-21.76h-2.37c-1.57.84-3.41,1.42-6.27,1.8v2.07h5.47v17.89h-7.04v2.64h16.56Z"/>
  <path class="cls-1" d="M72.18,386.32c0-8.18-3.33-12.58-8.76-12.58s-8.76,4.4-8.76,12.58,3.33,12.74,8.76,12.74,8.76-4.63,8.76-12.74ZM57.61,386.32c0-6.99,2.41-10.02,5.81-10.02s5.81,3.02,5.81,10.02-2.41,10.17-5.81,10.17-5.81-3.18-5.81-10.17Z"/>
  <path class="cls-1" d="M65.79,386.05c0-1.56-1.11-2.52-2.37-2.52s-2.37.96-2.37,2.52,1.11,2.56,2.37,2.56,2.37-.95,2.37-2.56Z"/>
  <path class="cls-1" d="M88.74,386.05c0-1.56-1.11-2.52-2.37-2.52s-2.37.96-2.37,2.52,1.11,2.56,2.37,2.56,2.37-.95,2.37-2.56Z"/>
  <polygon class="cls-1" points="142.16 373.51 122.35 373.51 122.35 376.23 130.65 376.23 130.65 398.6 133.86 398.6 133.86 376.23 142.16 376.23 142.16 373.51"/>
  <polygon class="cls-1" points="156.81 398.6 156.81 376.23 165.1 376.23 165.1 373.51 145.3 373.51 145.3 376.23 153.59 376.23 153.59 398.6 156.81 398.6"/>
  <path class="cls-1" d="M15.13,387.05l-4.01-13.54h-3.44l8.03,25.09h3.75l7.95-25.09h-3.29l-4.02,13.54c-.84,2.95-1.49,5.35-2.41,8.26h-.15c-.92-2.91-1.53-5.31-2.41-8.26Z"/>
  <path class="cls-1" d="M95.12,386.32c0-8.18-3.32-12.58-8.76-12.58s-8.76,4.4-8.76,12.58,3.33,12.74,8.76,12.74,8.76-4.63,8.76-12.74ZM80.55,386.32c0-6.99,2.41-10.02,5.81-10.02s5.81,3.02,5.81,10.02-2.41,10.17-5.81,10.17-5.81-3.18-5.81-10.17Z"/>
  <path class="cls-1" d="M48.24,419.13c0-8.18-3.32-12.58-8.76-12.58s-8.76,4.4-8.76,12.58,3.33,12.74,8.76,12.74,8.76-4.63,8.76-12.74ZM33.67,419.13c0-7,2.4-10.02,5.81-10.02s5.81,3.02,5.81,10.02-2.41,10.17-5.81,10.17-5.81-3.17-5.81-10.17Z"/>
  <path class="cls-1" d="M93.86,423.6c0-5.28-3.71-7.65-8.37-7.65-1.83,0-3.1.38-4.51.99l.65-7.18h11.01v-2.76h-13.8l-.8,11.74,1.68,1.07c1.72-.96,2.95-1.45,4.97-1.45,3.6,0,5.96,1.95,5.96,5.31s-2.75,5.55-6.15,5.55-5.24-1.34-6.88-2.79l-1.57,2.1c1.87,1.68,4.44,3.33,8.79,3.33,4.67,0,9.02-2.98,9.02-8.26Z"/>
  <path class="cls-1" d="M20.63,413.89c0,4.05-4.51,8.34-12.77,15.64v1.87h17.17v-2.72h-7.99c-1.45,0-3.02.08-4.55.19,6.62-6,11.21-10.56,11.21-15.14,0-4.32-3.06-7.19-7.95-7.19-3.44,0-5.85,1.49-8.07,3.71l1.83,1.8c1.57-1.6,3.56-2.9,5.85-2.9,3.59,0,5.28,1.95,5.28,4.74Z"/>
  <path class="cls-1" d="M69.58,413.74c0-4.32-3.06-7.19-7.95-7.19-3.44,0-5.85,1.49-8.07,3.71l1.83,1.8c1.57-1.6,3.56-2.9,5.85-2.9,3.59,0,5.28,1.95,5.28,4.74,0,4.05-4.52,8.34-12.78,15.64v1.87h17.17v-2.72h-7.99c-1.45,0-3.02.08-4.55.19,6.61-6,11.2-10.56,11.2-15.14Z"/>
  <path class="cls-1" d="M41.86,418.86c0-1.57-1.11-2.52-2.37-2.52s-2.37.96-2.37,2.52,1.11,2.56,2.37,2.56,2.37-.96,2.37-2.56Z"/>
  <path class="cls-1" d="M299.17,83.56h-25.3v269.12h55.68v-131.96h-25.59v106.41c-1.75-.12-3.06-.22-4.79-.34V83.56Z"/>
  <path class="cls-1" d="M365,352.79h25.75v-4.69c0-82.83,0-165.66,0-248.49,0-.84.02-1.68-.01-2.52-.35-8.71-5.42-13.7-14.15-13.77-8.83-.07-17.66-.03-26.49-.02-10.97.01-15.63,4.64-15.64,15.55,0,83.11,0,166.22,0,249.33v4.5h25.93v-121.27h4.6v121.38ZM360.6,109.36h3.96v95.66c-1.14.06-2.41.12-3.96.2v-95.86Z"/>
  <path class="cls-1" d="M425.92,352.8h25.32c.1-1.14.25-2.08.25-3.02,0-38.54.04-77.07-.02-115.61-.01-8.64-5.26-13.65-14.04-13.75-5.29-.06-10.58-.01-15.95-.01v-4.48c5.21,0,10.1.03,14.99,0,9.93-.08,15.02-5.14,15.02-15.04.02-34.33.02-68.66,0-103,0-9.97-4.66-14.53-14.77-14.56-12.47-.03-24.94-.01-37.42,0-1.21,0-2.43.17-3.75.26v269.16h25.65v-106.08h4.71v106.14ZM421.46,189.85v-80.39c1.1-.06,2.39-.13,3.98-.21v80.61h-3.98Z"/>
  <path class="cls-1" d="M816.61,83.54h-25.25v269.23h25.35v-121.35h4.8v121.32h25.47V83.64h-25.63v121.65c-1.67-.12-2.98-.22-4.74-.35v-121.4Z"/>
  <path class="cls-1" d="M664.55,321.74v-73.59c0-49.9.01-99.8-.01-149.7,0-10.68-4.47-15.12-15.06-15.14-12.2-.02-24.39,0-36.58,0h-4.12v269.44h25.37V109.5h4.72v5.65c0,73.73,0,147.46,0,221.19,0,12.05,4.68,16.67,16.87,16.67,11.49,0,22.99,0,34.48,0,1.49,0,2.97-.12,4.52-.19V83.52h-25.54v243.37h-4.64v-5.15Z"/>
  <path class="cls-1" d="M527.71,353c10.36-.06,15.17-4.88,15.21-15.24.04-10.65,0-21.31,0-31.96,0-27.34-.25-54.67.11-82,.16-11.78-3.03-19.86-18.57-18.73-3.86.28-7.76.04-11.63.04v-95.92c1.56.1,2.75.18,4.24.28v90.63h25.55c.15-.66.27-.93.27-1.2.02-34.06.11-68.13-.02-102.19-.03-8.52-5.32-13.33-13.96-13.4-9.39-.08-18.78-.08-28.17,0-9.11.07-14.02,5.01-14.02,14.12-.03,39.81-.03,79.62,0,119.43,0,9.11,4.5,13.66,13.67,13.87,5.32.12,10.64.02,16.37.02v96.36c-1.51-.12-2.71-.21-4.32-.34v-90.71h-25.75v3.97c0,32.66,0,65.32,0,97.99,0,10.1,4.78,14.89,14.93,14.96,8.69.06,17.38.05,26.07,0Z"/>
  <path class="cls-1" d="M573.21,83.53h-25.35c-.2.8-.32,1.07-.32,1.34-.02,44.28-.09,88.55.01,132.83.01,7.84,4.32,12.12,12.01,12.98,1.06.12,2.12.35,3.6.59v121.22h25.51v-121.04c14.05-3.71,15.06-5.05,15.06-19.78V83.51h-25.8v121.38h-4.71v-121.36Z"/>
  <path class="cls-1" d="M730.21,352.79h25.76V109.43h4.65v106.19h25.35V83.58h-86.02v132.04h25.69v-106.16h4.56v243.34Z"/>
  <path class="cls-1" d="M238.52,83.55h-25.59c-.09,1.32-.24,2.4-.24,3.49,0,83.81-.02,167.62,0,251.43,0,9.54,4.62,14.13,14.24,14.24,9.11.11,18.22.08,27.33.01,10.41-.08,14.69-4.47,14.7-14.99,0-83.25,0-166.5,0-249.74,0-1.48-.12-2.95-.19-4.45h-25.69v243.43h-4.56V83.55Z"/>
  <path class="cls-1" d="M846.98,57.49v-26.28h-19.8v6.57h12.37v16.28c-2.29,2.29-6.38,3.62-10.76,3.62-12.18,0-19.13-9.8-19.13-25.51s7.62-25.12,19.32-25.12c6,0,9.71,2.47,12.66,5.61l4.57-5.05c-3.52-3.71-8.95-7.61-17.23-7.61-16.18,0-27.7,12.18-27.7,32.36s11.33,32.37,27.04,32.37c8.09,0,14.75-3.24,18.65-7.23Z"/>
  <polygon class="cls-1" points="730.1 63.58 730.1 56.82 714.58 56.82 714.58 7.9 730.1 7.9 730.1 1.14 691.07 1.14 691.07 7.9 706.58 7.9 706.58 56.82 691.07 56.82 691.07 63.58 730.1 63.58"/>
  <path class="cls-1" d="M668.51,63.58h9.04l-15.87-27.31c8.44-2.09,14.06-7.83,14.06-17.52,0-13.04-9.23-17.61-21.89-17.61h-19.52v62.44h8.09v-26.36h11.05l15.03,26.36ZM642.43,30.75V7.61h10.28c9.71,0,15.04,2.95,15.04,11.14s-5.33,11.99-15.04,11.99h-10.28Z"/>
  <path class="cls-1" d="M759.7,24.37l19.99,39.21h8.76V1.14h-7.62v32.36c0,6.57.77,13.61,1.05,19.81h-.19l-6-12.95-19.99-39.21h-8.76v62.44h7.61V30.94c0-6.48-.76-13.14-1.04-19.52h.19l6,12.95Z"/>
  <path class="cls-1" d="M152.15,83.3v269.5c14.91,0,29.59.19,44.25-.1,5.58-.11,9.33-3.69,10.95-8.98.72-2.36.77-4.98.77-7.48.04-78.76.03-157.53.03-236.29,0-1.26.03-2.53-.08-3.78-.72-8.11-5.6-12.73-13.75-12.84-7.43-.1-14.86-.02-22.29-.02-6.55,0-13.1,0-19.88,0ZM182.08,109.44v217.42h-4.05V109.44h4.05Z"/>
  <path class="cls-1" d="M147.11,339.98c.05-1.4.02-2.8.02-4.2,0-39.23,0-78.45,0-117.68,0-5.6,0-11.21,0-16.81,0-34.46.02-68.93-.01-103.39,0-9.06-4.5-14.34-12.71-14.52-10.22-.22-20.45-.21-30.68,0-7.47.15-12.09,4.92-12.66,12.45-.1,1.4-.08,2.8-.08,4.2,0,78.73,0,157.47,0,236.2,0,1.54,0,3.09.13,4.62.63,7.12,5.19,11.82,12.2,11.94,10.5.17,21.02.14,31.51-.18,7.7-.23,11.98-4.93,12.26-12.62ZM117.04,326.9V109.42h4.21v217.48h-4.21Z"/>
  <path class="cls-1" d="M0,83.5v269.17h25.67V109.46h4.59v243.19h25.93V109.2c1.62.11,2.81.19,4.41.31v243.25h25.79v-4.37c0-83.25,0-166.51,0-249.76,0-10.77-4.55-15.31-15.36-15.32-22.29-.02-44.57,0-66.86,0-1.36,0-2.72.12-4.16.19Z"/>
</svg>